<?xml version="1.0" encoding="UTF-8"?>
<svg version="1.1" xmlns="http://www.w3.org/2000/svg" width="2560" height="1330">
<path d="M0 0 C20.75823782 16.24167599 33.64689648 39.24845662 46.95996094 61.49316406 C49.95302195 66.49040459 52.98903602 71.46138794 56.0234375 76.43359375 C57.16558726 78.30976029 58.30751144 80.18606418 59.44921875 82.0625 C61.28966881 85.08649945 63.13098983 88.10995804 64.97412109 91.13232422 C73.74426368 105.5143454 82.42283836 119.94556442 90.99960327 134.44381714 C96.2401432 143.29859499 101.55309189 152.09739728 107.0168457 160.81689453 C110.36380359 166.18368717 113.61825111 171.59971023 116.83203125 177.046875 C117.25437042 177.7620932 117.67670959 178.4773114 118.11184692 179.21420288 C120.21563545 182.77940062 122.31319214 186.34808146 124.40234375 189.921875 C130.1650727 201.42735545 130.1650727 201.42735545 139.0234375 209.93359375 C143.94064404 210.18273153 148.0761712 209.61621168 152.81640625 208.33911133 C153.46285347 208.16754265 154.10930069 207.99597397 154.77533722 207.81920624 C156.92283004 207.2470572 159.0667694 206.66259928 161.2109375 206.078125 C162.75373821 205.66451908 164.29675356 205.25171311 165.83996582 204.83964539 C169.15827827 203.95184317 172.47506753 203.05862758 175.79077148 202.16113281 C181.10105394 200.72381229 186.41450938 199.29848194 191.72851562 197.875 C198.21264724 196.13728802 204.69603549 194.39685373 211.17847443 192.65283775 C222.46546464 189.61652868 233.75796509 186.60144718 245.0546875 183.6015625 C245.86219578 183.38709221 246.66970406 183.17262192 247.50168228 182.95165253 C252.3671494 181.65952843 257.23280986 180.36813374 262.09854889 179.077034 C269.41491249 177.13564882 276.73104582 175.19339815 284.046875 173.25 C284.85492458 173.03538368 285.66297417 172.82076736 286.4955101 172.59964752 C297.77545788 169.6030697 309.05035991 166.5880913 320.32196045 163.56027222 C326.64745077 161.86118357 332.97425988 160.16702937 339.30135727 158.47393608 C343.60201441 157.32269794 347.90189076 156.16871099 352.19995117 155.0078125 C399.99707613 142.10211268 399.99707613 142.10211268 416.8984375 142.49609375 C418.47274536 142.51700073 418.47274536 142.51700073 420.07885742 142.53833008 C438.4246251 142.97247412 455.85318279 147.61552849 469.08984375 161.02734375 C478.36399746 172.08421816 480.85842017 184.86258948 480.0234375 198.93359375 C476.56926235 224.63499867 461.47680124 244.50080837 444.92578125 263.56640625 C442.42146513 266.45618984 439.99047411 269.39740994 437.5859375 272.37109375 C433.48428479 277.42213443 429.23752739 282.33487771 424.96557617 287.24145508 C420.04343233 292.89758396 415.19278995 298.61118966 410.36181641 304.34521484 C408.10576323 307.02268328 405.84637144 309.69732332 403.5859375 312.37109375 C403.13605469 312.90347656 402.68617188 313.43585938 402.22265625 313.984375 C398.80193855 318.02704137 395.35238213 322.04431336 391.8984375 326.05859375 C388.40528644 330.1198812 384.95895354 334.20877962 381.5859375 338.37109375 C377.48363801 343.42293092 373.23641772 348.33665355 368.96337891 353.24365234 C364.97639991 357.82456013 361.03532069 362.44100882 357.12207031 367.08496094 C353.73861802 371.09743559 350.32243566 375.08069763 346.8984375 379.05859375 C343.40519894 383.11980251 339.95895043 387.20878346 336.5859375 391.37109375 C332.48428479 396.42213443 328.23752739 401.33487771 323.96557617 406.24145508 C319.04343233 411.89758396 314.19278995 417.61118966 309.36181641 423.34521484 C307.10576297 426.02268359 304.8461895 428.69716918 302.5859375 431.37109375 C301.91655151 432.16422974 301.91655151 432.16422974 301.23364258 432.97338867 C298.7749297 435.88193574 296.29993166 438.77505264 293.8046875 441.65234375 C293.2677124 442.27310791 292.7307373 442.89387207 292.17749023 443.53344727 C291.14866202 444.72135799 290.11710498 445.90691322 289.08227539 447.08959961 C283.36607069 453.4101867 283.36607069 453.4101867 280.5078125 461.2421875 C281.18477541 466.08862649 282.99356236 469.70614361 285.2734375 473.99609375 C285.94789917 475.30429077 285.94789917 475.30429077 286.63598633 476.63891602 C290.37941701 483.84889071 294.28555539 490.97241885 298.20800781 498.08618164 C302.44844262 505.80026385 306.50183259 513.60425301 310.5234375 521.43359375 C314.89935079 529.95045437 319.33288429 538.42498917 323.9609375 546.80859375 C329.18130004 556.26783378 334.13534325 565.85240225 339.06518555 575.46484375 C343.25996702 583.63939086 347.51533053 591.76661854 351.9609375 599.80859375 C357.8153 610.40707855 363.34292488 621.16681095 368.86230469 631.94213867 C369.58130978 633.34557645 370.3003842 634.74897871 371.01953125 636.15234375 C371.3678299 636.83206741 371.71612854 637.51179108 372.07498169 638.21211243 C374.49598467 642.92821875 376.96516426 647.61658667 379.46582031 652.29101562 C391.93873559 675.63248688 399.88868718 699.4640193 393.4609375 726.12109375 C389.72920001 737.72221452 384.22362268 747.89039888 376.0234375 756.93359375 C375.32347656 757.71476563 374.62351562 758.4959375 373.90234375 759.30078125 C360.10514121 773.90958394 339.97291968 782.55718837 319.94140625 783.13671875 C303.37519049 783.36684528 288.75403613 781.38113827 272.8359375 776.890625 C271.7552298 776.58662781 270.67452209 776.28263062 269.56106567 775.96942139 C257.29902304 772.48843839 245.12525808 768.72247262 232.95294189 764.94219971 C225.88018576 762.74569409 218.80340017 760.56221881 211.7265625 758.37890625 C210.63823812 758.04300287 210.63823812 758.04300287 209.5279274 757.70031357 C191.60135465 752.16919262 173.63913795 746.75678012 155.67034912 741.36462402 C155.02680544 741.17150635 154.38326176 740.97838867 153.72021675 740.77941895 C151.82305437 740.21015042 149.92588575 739.6409027 148.02871704 739.07165527 C144.4957532 738.00897752 140.96494957 736.93939224 137.43457031 735.86816406 C133.35325598 734.62999542 129.26539737 733.42148285 125.16699219 732.24121094 C123.43935892 731.73013606 121.71181304 731.21876562 119.984375 730.70703125 C118.83952133 730.39011826 118.83952133 730.39011826 117.67153931 730.06680298 C112.86437717 728.61694879 110.6940377 727.15945945 108.0234375 722.93359375 C107.01902767 719.69497783 106.47041534 716.41113712 105.91699219 713.06958008 C105.74084381 712.0802951 105.56469543 711.09101013 105.38320923 710.07174683 C104.80567823 706.80545374 104.25009978 703.53585172 103.6953125 700.265625 C103.29854633 697.98725345 102.90068255 695.70907278 102.50177002 693.43107605 C101.66880124 688.65541933 100.84614001 683.87813932 100.03125 679.09936523 C98.98932093 672.99150519 97.92672487 666.88747509 96.85691452 660.78444386 C96.03351361 656.07826166 95.21882904 651.37060423 94.40695953 646.66242027 C94.01835439 644.41232434 93.6276296 642.16259338 93.23470306 639.91324806 C92.68543892 636.75840834 92.14736856 633.60185515 91.61230469 630.44458008 C91.45027557 629.52526199 91.28824646 628.60594391 91.12130737 627.6587677 C90.12733452 621.70084014 89.83796106 615.97010585 90.0234375 609.93359375 C101.9147542 612.63942003 113.68087215 615.67548082 125.4296875 618.94140625 C127.18033748 619.42544059 128.93106705 619.90918715 130.68186951 620.39266968 C135.33682738 621.67898083 139.99068663 622.96922364 144.64432907 624.26028442 C149.48432357 625.60230152 154.32534617 626.94059974 159.16625977 628.27929688 C167.96935326 630.71426291 176.77157475 633.15236355 185.57339001 635.59194565 C194.32402523 638.0172352 203.07550819 640.43945565 211.82717514 642.86101913 C227.56040025 647.21444173 243.29244054 651.57212629 259.0234375 655.93359375 C258.0799383 651.68768365 256.17995482 648.06173294 254.19140625 644.22265625 C253.80386169 643.46712463 253.41631714 642.71159302 253.01702881 641.9331665 C251.75286748 639.4726106 250.4822039 637.01548534 249.2109375 634.55859375 C248.33206293 632.85305296 247.45323829 631.14748643 246.57446289 629.44189453 C241.70256511 620.00541658 236.74203588 610.62873731 231.5925293 601.34033203 C226.88554272 592.7991346 222.46232328 584.11598358 218.0234375 575.43359375 C212.65224004 564.92805559 207.21305998 554.48124945 201.5 544.15625 C197.18815218 536.32621866 193.10222439 528.38653491 189.0234375 520.43359375 C184.33430966 511.29192262 179.59603822 502.18918398 174.6484375 493.18359375 C174.17172607 492.31404053 173.69501465 491.4444873 173.20385742 490.54858398 C171.32481295 487.12312395 169.44452834 483.69835767 167.56005859 480.27587891 C166.14101054 477.68842602 164.73686003 475.093395 163.3359375 472.49609375 C162.91328613 471.73264648 162.49063477 470.96919922 162.05517578 470.18261719 C159.68840779 465.76161722 158.26696802 462.04149029 158.0234375 456.93359375 C160.38943156 449.95391127 165.19594656 445.24315701 170.16796875 439.99609375 C172.70978845 437.30326651 175.07540149 434.50663941 177.3984375 431.62109375 C180.95660173 427.20668679 184.61427889 422.89728604 188.3359375 418.62109375 C188.88862305 417.98598877 189.44130859 417.35088379 190.01074219 416.6965332 C191.13129535 415.40913416 192.25190084 414.12178065 193.37255859 412.83447266 C200.27225483 404.88992447 207.08875023 396.87354109 213.875 388.83203125 C217.27684359 384.80456125 220.70961745 380.80450156 224.1484375 376.80859375 C227.64163232 372.74734565 231.08792301 368.65840596 234.4609375 364.49609375 C239.61530542 358.15082494 244.99706515 352.00849927 250.36376953 345.84326172 C256.57216373 338.69968134 262.75167722 331.53713503 268.7109375 324.18359375 C272.26089071 319.80851628 275.97907571 315.62810183 279.7734375 311.46484375 C282.10205803 308.84514565 284.31906697 306.15844065 286.5234375 303.43359375 C289.4315713 299.83881725 292.40885082 296.35098747 295.5234375 292.93359375 C307.49135141 280.31095606 307.49135141 280.31095606 317.0234375 265.93359375 C302.91627666 269.16096816 288.90629674 272.73956368 274.8984375 276.37109375 C273.67136078 276.68872681 272.44428406 277.00635986 271.18002319 277.33361816 C249.37792046 282.98067421 227.60367842 288.73163657 205.83829117 294.51842499 C203.3366569 295.18340252 200.83489343 295.84789201 198.33309937 296.51226807 C180.56550085 301.23142701 162.80693908 305.98115926 145.06971931 310.81335068 C140.14223708 312.15447677 135.2130931 313.48948671 130.28398037 314.82460594 C125.63572831 316.0846724 120.99076586 317.35604637 116.34801483 318.63622379 C113.48812878 319.42206179 110.62549065 320.19747585 107.76202774 320.97016716 C105.82716239 321.49572673 103.89578114 322.03406209 101.96456909 322.57289124 C88.21749075 326.2593132 88.21749075 326.2593132 82.0234375 324.93359375 C79.64526367 322.84008789 79.64526367 322.84008789 78.0234375 319.93359375 C77.06884644 318.4185022 77.06884644 318.4185022 76.0949707 316.87280273 C75.42812256 315.73657471 74.76127441 314.60034668 74.07421875 313.4296875 C73.70463547 312.80304703 73.33505219 312.17640656 72.95426941 311.53077698 C72.15962741 310.18284707 71.36665223 308.83393339 70.57519531 307.48413086 C68.44786321 303.85685361 66.30752428 300.23726377 64.16796875 296.6171875 C63.73344391 295.88140472 63.29891907 295.14562195 62.85122681 294.38754272 C58.79889994 287.5344139 54.67084167 280.72956578 50.5234375 273.93359375 C44.36337344 263.83239395 38.29694206 253.67927625 32.2734375 243.49609375 C26.52196386 233.77416375 20.70882484 224.10111518 14.72680664 214.51855469 C10.64596831 207.97216952 6.66729078 201.36835114 2.7109375 194.74609375 C-12.98888612 165.13684402 -12.98888612 165.13684402 -32.9765625 138.93359375 C-39.28351632 172.25549824 -45.39089625 205.60966557 -51.32421875 239 C-51.4810625 239.88255195 -51.63790626 240.7651039 -51.79950285 241.67439985 C-53.72677324 252.52071811 -55.65017221 263.36772119 -57.57185304 274.21503103 C-60.18945136 288.99052429 -62.81076081 303.76535925 -65.4338035 318.53988689 C-66.34851003 323.69265184 -67.26197254 328.84563521 -68.17434609 333.99881375 C-68.73755266 337.17878927 -69.30163989 340.35860815 -69.86593246 343.53839111 C-70.12511238 344.9999864 -70.38391817 346.46164808 -70.64230537 347.92338371 C-71.21235482 351.14781741 -71.78821153 354.370582 -72.37971687 357.59118843 C-72.75723741 359.70534759 -73.10550961 361.82512132 -73.41293144 363.95060539 C-74.41180773 370.3138037 -74.41180773 370.3138037 -77.25090027 373.42956543 C-80.0148053 374.95469624 -82.57552969 376.05302818 -85.5871582 376.99804688 C-86.70410568 377.35441727 -87.82105316 377.71078766 -88.97184753 378.07795715 C-90.18641129 378.45312973 -91.40097504 378.82830231 -92.65234375 379.21484375 C-93.94892979 379.62391559 -95.24521274 380.0339492 -96.54121399 380.44487 C-100.05208893 381.55501257 -103.56710615 382.65146437 -107.08301544 383.74554062 C-110.80381324 384.90603562 -114.52054387 386.07941944 -118.23779297 387.2512207 C-126.73085819 389.92566717 -135.22977153 392.58120553 -143.73003387 395.23267365 C-147.30681925 396.34863573 -150.88313071 397.46611395 -154.45947266 398.58349609 C-159.85930944 400.27032747 -165.25926496 401.95677814 -170.65942383 403.64257812 C-171.31618072 403.84760389 -171.9729376 404.05262966 -172.64959621 404.26386833 C-176.62590458 405.50498952 -180.60264796 406.74470726 -184.57963848 407.98364067 C-205.26935968 414.43015534 -225.91477135 421.00697546 -246.53442383 427.67480469 C-256.94155684 431.03878619 -267.35307244 434.38109517 -277.80078125 437.6171875 C-278.7091272 437.89950226 -279.61747314 438.18181702 -280.55334473 438.47268677 C-284.71727206 439.7665827 -288.88333995 441.05214598 -293.05517578 442.3203125 C-294.48352389 442.76261591 -295.91175473 443.20529828 -297.33984375 443.6484375 C-298.55969971 444.020896 -299.77955566 444.39335449 -301.03637695 444.77709961 C-303.87813171 445.89487693 -304.9707367 446.75788163 -306.9765625 448.93359375 C-280.11042203 459.70053539 -253.24026664 470.45630058 -226.32275391 481.09429932 C-205.69767419 489.24555243 -185.08647945 497.43159526 -164.4765625 505.62109375 C-162.79380355 506.28972537 -161.11104395 506.95835534 -159.42828369 507.62698364 C-149.94420872 511.39543123 -140.46029977 515.16429639 -130.9765625 518.93359375 C-132.28588958 522.86157499 -134.63976355 523.98939663 -137.9765625 526.12109375 C-138.62882812 526.54688721 -139.28109375 526.97268066 -139.953125 527.41137695 C-142.28750495 528.92951973 -144.63116052 530.43253648 -146.9765625 531.93359375 C-147.89695312 532.52398438 -148.81734375 533.114375 -149.765625 533.72265625 C-153.91371511 536.38224964 -158.06384473 539.03860449 -162.2175293 541.68945312 C-172.2732126 548.10851737 -182.26516397 554.62261522 -192.24951172 561.15185547 C-201.28647825 567.05622268 -210.34156032 572.93303815 -219.40234375 578.80078125 C-220.11148926 579.2601709 -220.82063477 579.71956055 -221.55126953 580.19287109 C-222.94527388 581.09396427 -224.34075405 581.99277894 -225.73779297 582.88916016 C-229.36123084 585.21759419 -232.94655482 587.58746355 -236.49609375 590.02734375 C-237.24608643 590.53442871 -237.9960791 591.04151367 -238.76879883 591.56396484 C-240.19101876 592.52679028 -241.60446548 593.50276998 -243.0065918 594.49462891 C-247.86596512 597.75508834 -252.08802572 599.142962 -257.9765625 598.93359375 C-261.41711754 598.02953945 -264.51970883 596.6024389 -267.7265625 595.078125 C-268.63559326 594.66714066 -269.54462402 594.25615631 -270.48120117 593.8327179 C-272.38168588 592.97243272 -274.27840888 592.10379171 -276.17138672 591.22711182 C-279.67131557 589.61323035 -283.19653167 588.06109263 -286.72497559 586.51081848 C-291.14961067 584.56431081 -295.56191389 582.59011736 -299.9765625 580.62109375 C-301.91985577 579.75562956 -303.86321676 578.8903174 -305.80664062 578.02514648 C-309.83618087 576.23117731 -313.86543317 574.43656354 -317.89453125 572.64160156 C-324.86512494 569.53701153 -331.83901761 566.43986669 -338.81326294 563.3434906 C-346.33571439 560.0035493 -353.85581482 556.65834609 -361.37521362 553.3115387 C-366.0971423 551.21084724 -370.82211324 549.11733559 -375.55157471 547.03366089 C-415.12262955 529.59596282 -415.12262955 529.59596282 -429.9765625 516.93359375 C-430.87890625 516.17046875 -431.78125 515.40734375 -432.7109375 514.62109375 C-450.63284488 498.9801564 -464.54662188 478.19108588 -466.2578125 453.94921875 C-466.8826274 435.93336216 -461.29180891 420.18685863 -449.4140625 406.5234375 C-439.33079403 395.80996475 -428.1084018 388.43378836 -415.1015625 381.80859375 C-414.51479736 381.50808105 -413.92803223 381.20756836 -413.32348633 380.89794922 C-401.40304381 375.00181636 -388.77303932 370.70545287 -376.1640625 366.55859375 C-374.60846117 366.04367612 -373.05287919 365.52870005 -371.49731445 365.01367188 C-350.8911178 358.20931354 -330.20786645 351.64103302 -309.52838135 345.0637207 C-305.89018401 343.90610962 -302.25241108 342.74717342 -298.61474609 341.58789062 C-290.8611909 339.11715047 -283.10675515 336.64918936 -275.3515625 334.18359375 C-274.70076847 333.97666271 -274.04997444 333.76973167 -273.37945938 333.55653 C-257.33241794 328.45486942 -241.2738954 323.39204278 -225.1953125 318.390625 C-223.7213159 317.93179776 -222.247327 317.47294577 -220.77334595 317.0140686 C-214.40881409 315.03318742 -208.0436732 313.0544035 -201.67500687 311.08685017 C-199.70289437 310.47691408 -197.73139758 309.86503182 -195.76013184 309.25236511 C-193.37409418 308.51099024 -190.98705773 307.77281749 -188.59875488 307.03877258 C-185.37960955 306.03596562 -182.17552226 304.99898887 -178.9765625 303.93359375 C-177.19744476 303.34226151 -177.19744476 303.34226151 -175.38238525 302.73898315 C-173.6329361 302.11879807 -173.6329361 302.11879807 -171.84814453 301.48608398 C-170.79418488 301.11756821 -169.74022522 300.74905243 -168.65432739 300.36936951 C-165.44981109 298.65115786 -164.48938101 297.20135383 -162.9765625 293.93359375 C-162.28760517 291.1763155 -161.72345986 288.50751404 -161.2421875 285.71484375 C-161.08790787 284.86803543 -160.93362823 284.02122711 -160.77467346 283.14875793 C-160.2486648 280.24540475 -159.73771472 277.33959684 -159.2265625 274.43359375 C-158.84279629 272.29568134 -158.45824448 270.15790984 -158.07299805 268.02026367 C-156.82236986 261.05630393 -155.59138058 254.08892076 -154.36257172 247.12108612 C-153.6818753 243.26361809 -152.99922857 239.40649503 -152.31689453 235.54931641 C-150.47160549 225.1153814 -148.62989842 214.68081522 -146.7890625 204.24609375 C-146.63050907 203.34733898 -146.47195564 202.44858421 -146.30859756 201.52259445 C-145.33749419 196.01764543 -144.3666428 190.51265201 -143.39596748 185.00762749 C-142.90542266 182.22577697 -142.41474117 179.44395058 -141.92405701 176.66212463 C-140.28764764 167.38295627 -138.65472487 158.10319309 -137.02832031 148.82226562 C-135.61524506 140.75914667 -134.1946894 132.6973837 -132.76563931 124.63708019 C-132.02340794 120.44912964 -131.28460192 116.26065065 -130.55508423 112.07046509 C-124.4156803 76.83395377 -117.28588963 41.64048432 -92.9765625 13.93359375 C-92.28046875 13.09441406 -91.584375 12.25523438 -90.8671875 11.390625 C-66.79105489 -16.82626091 -29.92794258 -20.77674754 0 0 Z " fill="#E2591B" transform="translate(2073.9765625,13.06640625)"/>
<path d="M0 0 C0.92216309 0.20367188 1.84432617 0.40734375 2.79443359 0.6171875 C57.76797738 13.13180418 106.53245736 47.78280198 136.73046875 95.23046875 C151.95893643 119.88193217 160.94562814 147.38740296 165 176 C165.17354004 177.1437207 165.17354004 177.1437207 165.35058594 178.31054688 C175.40028242 246.60076924 155.26392954 315.96871138 114.54199219 370.96923828 C111.4568699 375.05859274 108.26328036 379.05179065 105 383 C104.53803223 383.55961426 104.07606445 384.11922852 103.60009766 384.69580078 C87.77988949 403.73753917 70.75766218 421.06310074 51 436 C50.39397949 436.46293457 49.78795898 436.92586914 49.16357422 437.40283203 C40.14195102 444.27769362 30.91130429 450.48155395 21 456 C20.17532227 456.46019531 19.35064453 456.92039062 18.50097656 457.39453125 C-22.79476139 480.20121203 -67.98310484 492.51311483 -115.1875 492.3125 C-116.08319702 492.31067719 -116.97889404 492.30885437 -117.9017334 492.30697632 C-131.78301215 492.25954352 -145.34964818 491.72900539 -159 489 C-159.87382324 488.82839355 -160.74764648 488.65678711 -161.64794922 488.47998047 C-191.70141385 482.37988489 -218.62742815 469.83815378 -244.27392578 453.328125 C-244.92188614 452.91127441 -245.5698465 452.49442383 -246.23744202 452.06494141 C-247.82510177 451.04351251 -249.4125702 450.02178624 -251 449 C-253.11359527 464.89458198 -255.22651356 480.78925382 -257.33870125 496.6840229 C-258.41594711 504.79045988 -259.49350888 512.89685472 -260.57155347 521.00318551 C-261.33159459 526.71858438 -262.09103521 532.43406293 -262.8502605 538.14957023 C-263.41243231 542.38100431 -263.97554015 546.61231262 -264.53928733 550.84353709 C-266.33666784 564.33748332 -268.11643182 577.83308852 -269.82324219 591.33886719 C-270.10024907 593.51725293 -270.37733576 595.69562853 -270.6545105 597.87399292 C-271.15933422 601.8431117 -271.65400421 605.81331029 -272.14260864 609.78445435 C-272.3627553 611.52155337 -272.58326104 613.25860694 -272.80419922 614.99560547 C-272.89690975 615.77375484 -272.98962029 616.55190422 -273.08514023 617.35363388 C-273.5471461 620.91907911 -273.96963488 622.95445233 -276 626 C-277.86750889 626.3719368 -277.86750889 626.3719368 -280.18202209 626.36749268 C-281.05839828 626.37306183 -281.93477448 626.37863098 -282.83770752 626.3843689 C-283.80142273 626.37515411 -284.76513794 626.36593933 -285.75805664 626.35644531 C-286.77111374 626.35848969 -287.78417084 626.36053406 -288.82792664 626.36264038 C-292.18885123 626.36565757 -295.54928968 626.34714415 -298.91015625 626.328125 C-301.23660663 626.32506916 -303.56305884 626.32319171 -305.88951111 626.32244873 C-310.76959207 626.31783989 -315.64950856 626.30339072 -320.52954102 626.28125 C-326.80029945 626.25295153 -333.07092821 626.24203765 -339.34174442 626.2375679 C-344.14653331 626.23342081 -348.95129569 626.22360956 -353.75607109 626.21169281 C-356.06905338 626.20597618 -358.38203825 626.20122212 -360.69502449 626.19742584 C-363.92050838 626.190588 -367.14588723 626.17696786 -370.37133789 626.16113281 C-371.81994705 626.15945602 -371.81994705 626.15945602 -373.29782104 626.15774536 C-374.17137741 626.15203522 -375.04493378 626.14632507 -375.94496155 626.14044189 C-376.70837388 626.13746723 -377.47178621 626.13449257 -378.25833225 626.13142776 C-380 626 -380 626 -381 625 C-380.90979397 612.80976533 -378.58694167 600.45384107 -377 588.39453125 C-376.68904239 586.01207242 -376.37838688 583.62957414 -376.06800842 581.24703979 C-375.31301611 575.45748986 -374.5548882 569.66835682 -373.79538792 563.87939668 C-372.90155556 557.06508544 -372.01180484 550.25024298 -371.12224829 543.43537247 C-369.2348496 528.97708551 -367.34249205 514.5194501 -365.44879466 500.06198698 C-365.35295988 499.33033133 -365.2571251 498.59867567 -365.15838623 497.84484863 C-365.01465978 496.74756743 -365.01465978 496.74756743 -364.86802977 495.62811893 C-363.81902568 487.61903404 -362.77101263 479.60981953 -361.72314453 471.60058594 C-361.62984195 470.887459 -361.53653936 470.17433207 -361.44040942 469.43959522 C-360.50559118 462.29458243 -359.5708851 455.14955497 -358.63632429 448.0045085 C-358.26681738 445.17950292 -357.8972969 442.35449912 -357.5277698 439.52949619 C-357.34413325 438.12560859 -357.16050024 436.72172052 -356.97687078 435.31783199 C-355.79394894 426.27437337 -354.6097298 417.23108574 -353.4243412 408.18795013 C-348.77863207 372.76925085 -348.77863207 372.76925085 -344.24609375 337.3359375 C-344.0469872 335.75928684 -343.84787537 334.18263684 -343.64875793 332.60598755 C-343.55337455 331.85063406 -343.45799116 331.09528057 -343.35971737 330.31703758 C-340.24982045 305.69191755 -336.95588051 281.10519971 -333.25 256.5625 C-333.07049805 255.36182892 -332.89099609 254.16115784 -332.70605469 252.92410278 C-329.61834624 232.38121042 -326.17594464 211.89298061 -319.4375 192.1875 C-319.22923584 191.57089508 -319.02097168 190.95429016 -318.80639648 190.31900024 C-312.08905411 170.52754929 -303.23940029 151.62743806 -292 134 C-291.34773438 132.96488281 -290.69546875 131.92976562 -290.0234375 130.86328125 C-274.91506295 107.57897562 -256.26677768 84.90254166 -235 67 C-234.39994141 66.48759766 -233.79988281 65.97519531 -233.18164062 65.44726562 C-217.17091488 51.80158391 -200.19839989 40.52052921 -182 30 C-181.35240723 29.62246582 -180.70481445 29.24493164 -180.03759766 28.85595703 C-153.55232288 13.55415242 -123.87925919 4.70287082 -94 -1 C-93.06655762 -1.18079102 -92.13311523 -1.36158203 -91.17138672 -1.54785156 C-62.11310019 -6.88324785 -28.80430799 -6.56878113 0 0 Z M-155 133 C-155.9796875 133.68707031 -156.959375 134.37414062 -157.96875 135.08203125 C-193.50647837 160.89966312 -214.08540979 198.93639468 -221.62402344 241.5925293 C-226.56427291 273.22616572 -220.45862387 306.71446909 -201.58789062 332.94824219 C-192.30358736 345.30488735 -181.21691065 355.96710731 -168 364 C-166.87464844 364.68578125 -165.74929688 365.3715625 -164.58984375 366.078125 C-149.70873997 374.73894381 -132.95857717 379.53509053 -116 382 C-115.20078125 382.13019531 -114.4015625 382.26039063 -113.578125 382.39453125 C-75.16827954 387.80945307 -36.86545218 372.06656263 -6.4921875 349.6796875 C-0.41137013 345.08384079 5.33333642 340.09265298 11 335 C11.67546875 334.39800781 12.3509375 333.79601563 13.046875 333.17578125 C41.11051611 306.64895858 57.22550187 265.07321137 59.23583984 227.02734375 C59.63424086 193.53159032 44.97405938 160.67854502 22 137 C-0.94147999 113.97927483 -31.87927012 103.04933213 -64 102.625 C-95.94604638 102.68467654 -129.36685818 113.81283943 -155 133 Z " fill="#3B393D" transform="translate(788,701)"/>
<path d="M0 0 C10.89198549 9.76334878 20.44261337 20.39644374 29.19091797 32.12646484 C30.93914148 34.46257641 32.70386763 36.78582482 34.46875 39.109375 C35.81161191 40.88380135 37.15406005 42.65854092 38.49609375 44.43359375 C39.13063477 45.26955078 39.76517578 46.10550781 40.41894531 46.96679688 C44.11436246 51.87968885 47.50433172 56.85865812 50.68359375 62.12109375 C43.78863868 67.82848587 36.63320631 73.1355944 29.41308594 78.42016602 C23.25850465 82.9349927 17.17824048 87.53909343 11.12109375 92.18359375 C4.70973535 97.09546953 -1.74678256 101.92296811 -8.31640625 106.62109375 C-14.94623336 111.36313328 -21.46631044 116.23235959 -27.94140625 121.18359375 C-29.25685425 122.1890625 -29.25685425 122.1890625 -30.59887695 123.21484375 C-33.99004578 125.80870394 -37.37997226 128.40418598 -40.77001953 130.99951172 C-43.01097463 132.71160327 -45.25669353 134.41722846 -47.50390625 136.12109375 C-48.16922363 136.63164307 -48.83454102 137.14219238 -49.52001953 137.66821289 C-54.08788685 141.12109375 -54.08788685 141.12109375 -56.31640625 141.12109375 C-57.54638672 139.44726562 -57.54638672 139.44726562 -58.93359375 137.08984375 C-59.45187744 136.22415771 -59.97016113 135.35847168 -60.50415039 134.46655273 C-61.06094482 133.52755127 -61.61773926 132.5885498 -62.19140625 131.62109375 C-77.26514523 106.80423993 -94.23412478 85.08249789 -123.76171875 77.6796875 C-142.68832514 73.54130109 -161.43229535 77.49548587 -177.94140625 87.30859375 C-189.27793613 94.92073053 -196.62395722 104.15234809 -200.98046875 117.09375 C-203.01498327 129.37180857 -201.03101635 140.13233562 -193.87890625 150.30859375 C-192.37887933 152.26224662 -190.85538828 154.19797789 -189.31640625 156.12109375 C-188.60170166 157.02069824 -188.60170166 157.02069824 -187.87255859 157.93847656 C-177.87609196 170.49805873 -167.56129902 182.78956933 -156.58764648 194.50854492 C-153.98935633 197.28552193 -151.45017471 200.10058882 -148.95703125 202.97265625 C-145.19982016 207.2870047 -141.30672322 211.46222872 -137.37890625 215.62109375 C-136.71439453 216.32878906 -136.04988281 217.03648437 -135.36523438 217.765625 C-131.35002121 222.02619067 -127.26602457 226.20229938 -123.09423828 230.30981445 C-121.35470956 232.08206982 -119.73244688 233.91323377 -118.12890625 235.80859375 C-114.87210604 239.60445055 -111.37028479 243.10732105 -107.81640625 246.62109375 C-103.74006747 250.6515859 -99.83087416 254.72343756 -96.12109375 259.09765625 C-93.79002083 261.71128346 -91.30804285 264.16241751 -88.81640625 266.62109375 C-85.15605074 270.23793197 -81.65491818 273.92351245 -78.31640625 277.83984375 C-76.14737067 280.31389995 -73.90795572 282.71021393 -71.65527344 285.10791016 C-41.47870117 317.25326734 -16.39645173 356.78919331 -16.11328125 402.328125 C-16.10622162 403.08683395 -16.09916199 403.84554291 -16.09188843 404.62724304 C-15.86325695 436.40925158 -15.86325695 436.40925158 -19.31640625 450.12109375 C-19.52571777 450.95946777 -19.7350293 451.7978418 -19.95068359 452.66162109 C-28.29734932 485.20357545 -42.74724366 516.18170868 -64.31640625 542.12109375 C-65.1053125 543.11109375 -65.89421875 544.10109375 -66.70703125 545.12109375 C-79.60847673 561.10487325 -94.47725977 575.36659186 -111.31640625 587.12109375 C-112.17032959 587.72606689 -112.17032959 587.72606689 -113.04150391 588.34326172 C-144.67670393 610.53033345 -181.49805539 622.18976458 -219.31640625 628.12109375 C-220.13818359 628.25386719 -220.95996094 628.38664062 -221.80664062 628.5234375 C-253.0979287 633.37099997 -285.95164249 630.52449221 -316.31640625 622.12109375 C-317.08259277 621.91145996 -317.8487793 621.70182617 -318.63818359 621.48583984 C-356.60604887 610.79426018 -387.90651014 583.92760261 -407.32421875 549.96875 C-415.76537488 534.61956839 -422.08372767 518.45509903 -428.31640625 502.12109375 C-428.64753418 501.28046387 -428.97866211 500.43983398 -429.31982422 499.57373047 C-430.48047337 496.59859304 -431.31640625 494.34609162 -431.31640625 491.12109375 C-430.61370605 490.75983398 -429.91100586 490.39857422 -429.18701172 490.02636719 C-417.31670657 483.91656616 -405.45152199 477.80727223 -393.75390625 471.37109375 C-383.0064917 465.45860585 -372.16707584 459.7264252 -361.31933594 454.00097656 C-354.22925787 450.25759046 -347.14594355 446.5029854 -340.0859375 442.703125 C-339.43814331 442.3546904 -338.79034912 442.0062558 -338.1229248 441.64726257 C-335.07460227 440.00699343 -332.02802597 438.36359538 -328.98388672 436.71557617 C-327.91154785 436.13783447 -326.83920898 435.56009277 -325.734375 434.96484375 C-324.80391357 434.46146484 -323.87345215 433.95808594 -322.91479492 433.43945312 C-320.42484185 432.17611134 -317.92470332 431.11338388 -315.31640625 430.12109375 C-314.81826416 431.19891113 -314.32012207 432.27672852 -313.80688477 433.38720703 C-311.92172981 437.45880252 -310.02293561 441.52392122 -308.12036133 445.58740234 C-307.3052161 447.33311158 -306.4935763 449.0804628 -305.68579102 450.82958984 C-298.66008169 466.03233516 -291.26995544 480.12681697 -279.31640625 492.12109375 C-278.57003906 492.89066406 -277.82367188 493.66023438 -277.0546875 494.453125 C-262.51885248 508.55648889 -243.33284069 514.52858081 -223.34375 514.33203125 C-201.3448615 513.47389979 -180.7955885 503.14527678 -164.31640625 489.12109375 C-163.30578125 488.37859375 -162.29515625 487.63609375 -161.25390625 486.87109375 C-150.61656574 477.83086102 -142.55583951 462.96671169 -141.09692383 449.0234375 C-139.90837896 427.29574098 -147.92221939 410.89788035 -161.31640625 394.12109375 C-162.01507813 393.24066406 -162.71375 392.36023438 -163.43359375 391.453125 C-173.16901695 379.38191344 -183.47724374 367.84060876 -194.1015625 356.55078125 C-197.49792201 352.93923634 -200.81612359 349.26163119 -204.12109375 345.56640625 C-212.41694674 336.32582979 -220.88890074 327.24141924 -229.31640625 318.12109375 C-250.09617751 295.63303044 -250.09617751 295.63303044 -259.13671875 285.546875 C-260.60434011 283.91355445 -262.07844412 282.28603832 -263.55859375 280.6640625 C-268.24569602 275.51473734 -272.70743468 270.2363642 -277.078125 264.81640625 C-279.18108119 262.28405063 -281.37421094 259.89297705 -283.62890625 257.49609375 C-297.92758065 241.70278439 -309.50618409 222.3090479 -316.31640625 202.12109375 C-316.57405762 201.36022461 -316.83170898 200.59935547 -317.09716797 199.81542969 C-323.20832064 181.29387945 -326.46059047 161.65543883 -325.31640625 142.12109375 C-325.27918457 141.42838379 -325.24196289 140.73567383 -325.20361328 140.02197266 C-322.54779561 95.69024695 -298.41809925 57.44504624 -268.31640625 26.12109375 C-267.74905762 25.52651367 -267.18170898 24.93193359 -266.59716797 24.31933594 C-258.07449468 15.43228915 -249.30042415 7.33690484 -239.31640625 0.12109375 C-238.7558252 -0.28915039 -238.19524414 -0.69939453 -237.61767578 -1.12207031 C-169.16894283 -50.6782467 -65.41288567 -57.42587057 0 0 Z " fill="#3B393D" transform="translate(431.31640625,567.87890625)"/>
<path d="M0 0 C1.06879395 0.51602783 1.06879395 0.51602783 2.15917969 1.04248047 C49.81554089 24.30668046 89.26731487 68.81998814 107.10546875 118.6875 C114.46843351 140.4532071 118.38564038 162.8181195 118.31567383 185.7956543 C118.31258622 187.87931618 118.33585649 189.96144119 118.36132812 192.04492188 C118.50650559 221.48497295 113.93408342 251.06519246 110.18773651 280.20205688 C109.80680154 283.16938877 109.42822434 286.13701271 109.050354 289.10473633 C104.53548835 324.55349587 99.88056984 359.98432463 95.18217987 395.40918148 C94.55468977 400.14123531 93.92939779 404.87357641 93.30484009 409.60601807 C92.45947934 416.00995255 91.60789502 422.4130421 90.7521801 428.81560135 C90.43608934 431.18633434 90.12173978 433.55730021 89.80923653 435.92850876 C89.37957106 439.18544532 88.94333216 442.44143569 88.50537109 445.69726562 C88.38177625 446.64515017 88.2581814 447.59303471 88.13084126 448.56964302 C88.0108335 449.45146185 87.89082575 450.33328068 87.7671814 451.24182129 C87.6666213 451.99690224 87.56606121 452.75198318 87.46245384 453.52994537 C86.86222238 456.73589667 85.89604588 459.8638394 85 463 C50.35 463 15.7 463 -20 463 C-18.85146599 446.92052391 -18.85146599 446.92052391 -17.94360352 440.203125 C-17.84227364 439.42743982 -17.74094376 438.65175465 -17.63654327 437.85256386 C-17.30449756 435.31785479 -16.96671283 432.78394714 -16.62890625 430.25 C-16.3881575 428.42016606 -16.14780668 426.59027972 -15.90782166 424.76034546 C-15.39636745 420.8657066 -14.88251019 416.97139576 -14.36669922 413.07733154 C-13.55248569 406.92925662 -12.74429691 400.78039974 -11.9375 394.63134766 C-11.73406384 393.08099162 -11.73406384 393.08099162 -11.52651787 391.49931526 C-11.25110788 389.40036765 -10.97571667 387.30141758 -10.70034409 385.20246506 C-10.2836783 382.02780167 -9.86652058 378.85320324 -9.44924927 375.67861938 C-6.97943071 356.88252214 -4.54239587 338.08230811 -2.12960815 319.27880859 C-1.71780672 316.06969199 -1.30500755 312.86070675 -0.8911438 309.65185547 C0.24103627 300.87101059 1.36013944 292.0886736 2.45944214 283.3036499 C2.82655469 280.37226497 3.19876473 277.44158423 3.57449341 274.5112915 C5.72315616 257.71638402 7.70586042 241.09034154 7.4375 224.125 C7.43034973 223.28810638 7.42319946 222.45121277 7.41583252 221.58895874 C7.30681424 209.22298268 6.94746479 197.06569143 4 185 C3.69400879 183.72552002 3.69400879 183.72552002 3.38183594 182.42529297 C-2.15151726 160.07038497 -11.36294384 138.20076177 -27 121 C-27.57234375 120.35804688 -28.1446875 119.71609375 -28.734375 119.0546875 C-46.85570044 99.81156573 -74.83943807 90.06551801 -100.73828125 88.87402344 C-147.00909995 87.64573222 -188.63336556 102.86764912 -222.6875 134.375 C-235.73949754 146.78867134 -245.80278943 161.00678186 -254 177 C-254.55300781 178.07636719 -255.10601563 179.15273438 -255.67578125 180.26171875 C-271.38465506 212.61306868 -276.00044297 250.82012852 -264.6484375 285.26953125 C-259.7992931 299.08744716 -253.36359527 311.66187393 -244 323 C-242.84177734 324.40572266 -242.84177734 324.40572266 -241.66015625 325.83984375 C-221.49494804 349.1425884 -190.48079367 363.48835779 -160 366 C-132.24412603 367.55646075 -105.84432174 361.23246285 -81 349 C-79.83984375 348.43410156 -78.6796875 347.86820313 -77.484375 347.28515625 C-64.98370057 340.86874727 -54.23065704 332.57347942 -44 323 C-42.54772523 321.70152517 -41.08976823 320.40936479 -39.625 319.125 C-39.01914063 318.59132813 -38.41328125 318.05765625 -37.7890625 317.5078125 C-35.91237588 315.92615085 -33.96822813 314.46535526 -32 313 C-32.57321833 321.31222887 -33.36328043 329.55470481 -34.45874023 337.8137207 C-34.60197723 338.91467575 -34.74521423 340.0156308 -34.89279175 341.14994812 C-35.36118876 344.74236538 -35.83465031 348.33409183 -36.30859375 351.92578125 C-36.63884637 354.44392208 -36.96892671 356.96208552 -37.29884338 359.48027039 C-37.98831372 364.73626252 -38.68034797 369.99190858 -39.37426758 375.24731445 C-40.17389489 381.3037638 -40.96753987 387.36097596 -41.75826305 393.4185937 C-42.52348733 399.27909103 -43.29393561 405.13889346 -44.06645393 410.99843407 C-44.39281323 413.47848924 -44.71773301 415.95873429 -45.04116631 418.43917274 C-45.49359519 421.90447246 -45.95197522 425.36893562 -46.41186523 428.83325195 C-46.60911446 430.35844955 -46.60911446 430.35844955 -46.81034851 431.91445923 C-48.72726784 446.21694529 -48.72726784 446.21694529 -51.6171875 450.265625 C-54.91854499 452.66858029 -58.35700951 454.20453055 -62.125 455.75 C-62.9497583 456.09071533 -63.7745166 456.43143066 -64.62426758 456.7824707 C-123.82032122 480.54913878 -193.27019923 484.26664281 -252.76660156 459.4699707 C-289.0833 443.85854543 -320.10340657 419.33011487 -343 387 C-343.67385742 386.06124023 -343.67385742 386.06124023 -344.36132812 385.10351562 C-367.30145196 352.93264151 -380.88276857 312.75069473 -381.23828125 273.1640625 C-381.2480751 272.25499649 -381.25786896 271.34593048 -381.26795959 270.40931702 C-381.44290186 249.95086992 -381.21840167 230.10964082 -377 210 C-376.78569336 208.97261719 -376.57138672 207.94523438 -376.35058594 206.88671875 C-366.47644908 161.18110711 -344.52444032 114.52584552 -312.16015625 80.30078125 C-310.30470048 78.32453631 -308.53159554 76.30993462 -306.76171875 74.2578125 C-297.14045533 63.2238066 -286.59381823 52.93759763 -275 44 C-273.948576 43.14953419 -272.89920407 42.29652709 -271.8515625 41.44140625 C-229.26654521 6.91150782 -175.84200637 -15.69537769 -121 -20 C-120.31083496 -20.05494629 -119.62166992 -20.10989258 -118.91162109 -20.16650391 C-78.12324701 -23.30692153 -36.99000724 -18.06314902 0 0 Z " fill="#3B393D" transform="translate(1373,714)"/>
<path d="M0 0 C-0.59661901 13.56638012 -2.44270149 26.94833758 -4.23461914 40.39892578 C-4.57015836 42.94466201 -4.90526516 45.49045525 -5.23997498 48.03630066 C-5.9577419 53.49089458 -6.67890596 58.94503032 -7.40239143 64.39886856 C-8.44904147 72.2892898 -9.48970683 80.18049176 -10.52885061 88.07190464 C-12.21635417 100.88628764 -13.90764051 113.70016811 -15.60180664 126.51367188 C-15.70292204 127.27844703 -15.80403744 128.04322218 -15.90821695 128.83117233 C-16.31800949 131.93055301 -16.72780879 135.0299328 -17.13761756 138.12931133 C-18.26854702 146.68280615 -19.3987259 155.23640008 -20.52856445 163.79003906 C-20.62985958 164.55690305 -20.73115471 165.32376704 -20.83551938 166.11386932 C-22.52377107 178.89564329 -24.209452 191.67775527 -25.89354986 204.46007717 C-26.93117739 212.3345599 -27.97128224 220.20870815 -29.01459848 228.08243923 C-29.81247149 234.10492378 -30.60714375 240.12782604 -31.4006443 246.15088844 C-31.72685003 248.62261514 -32.0541773 251.09419412 -32.38269424 253.5656147 C-32.83007915 256.93236746 -33.2735107 260.29961801 -33.71595764 263.66702271 C-33.84756776 264.64998231 -33.97917789 265.63294192 -34.11477619 266.64568818 C-34.29150432 268.0000445 -34.29150432 268.0000445 -34.47180271 269.38176155 C-34.57454457 270.15851238 -34.67728643 270.93526322 -34.78314167 271.73555195 C-35.01624449 274.16962599 -35.0364813 276.55626798 -35 279 C-32.64351776 276.50217427 -30.29025984 274.00133185 -27.9375 271.5 C-27.28072266 270.80390625 -26.62394531 270.1078125 -25.94726562 269.390625 C-22.09682056 265.29359971 -18.34023152 261.13428676 -14.65454102 256.88867188 C-12.15901506 254.04000892 -9.58198987 251.27011299 -7 248.5 C-3.21262044 244.41800101 0.51770645 240.30226124 4.16015625 236.08984375 C7.03984905 232.81885511 10.00354253 229.62496909 12.95556641 226.41943359 C15.48754824 223.66508903 17.99042801 220.8924879 20.4375 218.0625 C24.06144644 213.87967989 27.83255746 209.83728193 31.59521484 205.77978516 C34.84615512 202.26787256 38.02984313 198.70998582 41.16015625 195.08984375 C44.03984905 191.81885511 47.00354253 188.62496909 49.95556641 185.41943359 C52.48754824 182.66508903 54.99042801 179.8924879 57.4375 177.0625 C61.06212089 172.87890143 64.83385067 168.8356539 68.59741211 164.77758789 C71.27401038 161.88635872 73.92311179 158.98110596 76.5 156 C80.10082614 151.83433839 83.85390974 147.81399952 87.59765625 143.77734375 C90.27415929 140.88618383 92.92318724 137.98101868 95.5 135 C99.10082614 130.83433839 102.85390974 126.81399952 106.59765625 122.77734375 C109.27415929 119.88618383 111.92318724 116.98101868 114.5 114 C118.10082614 109.83433839 121.85390974 105.81399952 125.59765625 101.77734375 C128.27415929 98.88618383 130.92318724 95.98101868 133.5 93 C137.09291594 88.8434894 140.83435222 84.82839013 144.57568359 80.8059082 C148.056116 77.05482449 151.42911206 73.23353396 154.6953125 69.29296875 C156 68 156 68 158 68 C160.50985557 82.05370643 163.00509225 96.10994164 165.48368931 110.16919613 C166.63508463 116.69773733 167.79109368 123.22539036 168.95776367 129.7512207 C170.08396259 136.05166351 171.19788865 142.35416498 172.30341911 148.65826607 C172.7268636 151.06031842 173.15468847 153.46160291 173.58700752 155.8620739 C174.19282725 159.23024447 174.78286674 162.60083457 175.36938477 165.97241211 C175.55064407 166.95928513 175.73190338 167.94615814 175.9186554 168.9629364 C177.0652196 175.68714421 177.90918211 182.50660295 174.53125 188.6875 C173.8609375 189.450625 173.190625 190.21375 172.5 191 C171.69820312 191.91394531 170.89640625 192.82789063 170.0703125 193.76953125 C165.57481152 198.57077546 160.9059392 203.21123455 156.20507812 207.81054688 C152.16696632 211.76677991 148.355769 215.81881217 144.67041016 220.10473633 C142.08181718 223.04177919 139.29889213 225.76525618 136.5 228.5 C133.04867473 231.90842744 129.63856398 235.2964945 126.5 239 C122.83677049 243.32261082 118.7877758 247.23793677 114.76220703 251.21826172 C111.27597185 254.68034982 107.98352567 258.22838017 104.8046875 261.9765625 C102.02214671 265.09638096 99.02315975 267.99733693 96.04858398 270.93188477 C92.79966524 274.15398526 89.77541079 277.49358303 86.80859375 280.97265625 C83.82349884 284.31879936 80.59117232 287.41593952 77.40234375 290.56640625 C75.36285627 292.63242365 73.444922 294.73005549 71.5625 296.9375 C68.25991394 300.80222837 64.67603831 304.35348231 61.06030273 307.92016602 C57.70893488 311.24371688 54.56736514 314.68586878 51.50390625 318.2734375 C49.44501641 320.63714999 47.24967462 322.81849734 45 325 C46.68778266 330.2205948 49.83623054 334.41583888 52.9375 338.875 C53.51943115 339.71853027 54.1013623 340.56206055 54.70092773 341.43115234 C58.6780085 347.1693801 62.75133177 352.82910569 66.90625 358.43945312 C72.40275948 365.86609527 77.69069404 373.4390407 83 381 C89.11665994 389.70339704 95.25975167 398.38463485 101.5 407 C108.24330241 416.30988792 114.86834714 425.70052019 121.47949219 435.10449219 C127.06268704 443.04315487 132.67689541 450.95580112 138.375 458.8125 C143.58683683 465.99938158 148.69307791 473.25502775 153.76904297 480.53833008 C157.62703038 486.06447746 161.53999891 491.54656785 165.5 497 C170.67253046 504.12324146 175.73625341 511.31691991 180.76953125 518.5390625 C184.62738441 524.0649453 188.5401714 529.54680538 192.5 535 C197.67253046 542.12324146 202.73625341 549.31691991 207.76953125 556.5390625 C211.62738441 562.0649453 215.5401714 567.54680538 219.5 573 C224.06621948 579.28827305 228.55653515 585.62440718 233 592 C239.10118827 600.75148203 245.31072172 609.41906421 251.58398438 618.04785156 C252.88986549 619.84816628 254.18876054 621.65322665 255.484375 623.4609375 C256.19078125 624.44320312 256.8971875 625.42546875 257.625 626.4375 C258.21539063 627.26121094 258.80578125 628.08492187 259.4140625 628.93359375 C260.92023019 631.01320309 260.92023019 631.01320309 262.7109375 632.59765625 C264 634 264 634 264 637 C246.12795341 637.07012714 228.25594261 637.12300631 210.38378811 637.15543652 C202.08515761 637.17089565 193.78661268 637.19196689 185.48803711 637.22631836 C178.25374657 637.25624997 171.01951802 637.27558194 163.78516728 637.28226548 C159.95574937 637.28617139 156.12650875 637.29533079 152.29714775 637.31719017 C148.68975039 637.33761486 145.08260267 637.3438218 141.47515297 637.33932304 C139.52626988 637.34053656 137.57741373 637.35664733 135.62860107 637.3732605 C128.53576638 637.34827638 122.62112416 637.30228304 117.13671875 632.30078125 C113.30782073 627.04765701 109.8316383 621.6118228 106.42822266 616.07714844 C102.45180371 609.63995387 98.27424075 603.34764072 94.0625 597.0625 C86.34231955 585.5349759 78.68798606 573.96538033 71.0625 562.375 C70.49187836 561.50782349 69.92125671 560.64064697 69.33334351 559.74719238 C66.39807188 555.286332 63.46330623 550.8251391 60.52880859 546.36376953 C55.37680229 538.53177511 50.21936766 530.70335626 45.06253052 522.87454224 C28.10894707 497.13527625 11.15861094 471.39383934 -5.75 445.625 C-6.17292328 444.98046875 -6.59584656 444.3359375 -7.03158569 443.671875 C-11.42257891 436.97971562 -15.8122559 430.28669447 -20.20046997 423.5927124 C-22.07796086 420.72890457 -23.95588577 417.86538148 -25.8338623 415.00189209 C-27.13088461 413.02384242 -28.42727326 411.04537859 -29.72363281 409.06689453 C-32.14407032 405.37461633 -34.57025602 401.68615971 -37 398 C-37.45038635 397.31609192 -37.90077271 396.63218384 -38.36480713 395.92755127 C-39.73657175 393.84701866 -41.11188895 391.76887957 -42.48828125 389.69140625 C-42.91062546 389.05033432 -43.33296967 388.40926239 -43.76811218 387.74876404 C-45.38936617 385.30835755 -46.92249641 383.07750359 -49 381 C-49.16915137 382.28989964 -49.33830275 383.57979927 -49.51257992 384.90878677 C-53.52611309 415.51402761 -57.54204814 446.1189522 -61.56094959 476.72348852 C-62.0553806 480.48867101 -62.5497913 484.25385617 -63.04418945 488.01904297 C-63.19183142 489.14343557 -63.19183142 489.14343557 -63.34245605 490.29054317 C-64.93707882 502.43504055 -66.53005528 514.57975333 -68.12242567 526.72454622 C-69.75583433 539.18204885 -71.39100679 551.63931904 -73.02782398 564.09637427 C-74.03813522 571.78581578 -75.04706286 579.47543623 -76.05423308 587.16528979 C-76.82609355 593.05738464 -77.60040544 598.94915566 -78.37564468 604.84080696 C-78.69371715 607.26108042 -79.01098627 609.6814596 -79.32740593 612.10194969 C-79.75843915 615.39826961 -80.19232083 618.69420225 -80.62693787 621.99005127 C-80.81517054 623.43751625 -80.81517054 623.43751625 -81.0072059 624.91422296 C-81.18262056 626.23766768 -81.18262056 626.23766768 -81.36157894 627.58784866 C-81.46144539 628.34880821 -81.56131184 629.10976775 -81.66420454 629.89378667 C-81.99224202 631.95133952 -82.49466771 633.97867084 -83 636 C-122.27 636 -161.54 636 -202 636 C-195.04530059 578.0441716 -195.04530059 578.0441716 -192.0854969 555.62636375 C-191.48453104 551.06922288 -190.8875974 546.5115573 -190.29077148 541.95387268 C-189.30822787 534.45441707 -188.32283292 526.95533907 -187.33635467 519.45640013 C-186.16272621 510.53386329 -184.99216588 501.61092456 -183.82162727 492.68798193 C-181.7082959 476.5789629 -179.59234791 460.4702887 -177.47485352 444.36181641 C-175.47490676 429.14754715 -173.47674059 413.93304563 -171.48071289 398.71826172 C-171.23602014 396.85315232 -170.9913265 394.98804303 -170.74663198 393.12293386 C-170.62561932 392.20054785 -170.50460666 391.27816184 -170.37992696 390.32782474 C-170.25898914 389.40600999 -170.13805132 388.48419524 -170.01344872 387.53444672 C-169.89260761 386.61336627 -169.77176651 385.69228583 -169.64726355 384.74329385 C-166.35738083 359.66733124 -163.0657986 334.59159675 -159.76205444 309.51745605 C-159.64157489 308.60304762 -159.52109534 307.68863919 -159.39696489 306.74652141 C-158.3037256 298.44945046 -157.21026103 290.15240921 -156.11629939 281.85543346 C-153.2640471 260.22269845 -150.42015971 238.5889055 -147.59270211 216.95291474 C-145.50964786 201.01335028 -143.41903865 185.07479321 -141.32083017 169.13721633 C-140.04798564 159.4665573 -138.78187013 149.79506772 -137.52476023 140.12235051 C-136.67758028 133.60867951 -135.8220897 127.09613498 -134.95988114 120.58443636 C-134.46509616 116.8456736 -133.97410073 113.10651393 -133.49315953 109.36594296 C-132.97328696 105.32321333 -132.43574378 101.28303382 -131.89637756 97.24285889 C-131.74756006 96.06300643 -131.59874256 94.88315398 -131.44541544 93.66754842 C-131.29852433 92.58928941 -131.15163322 91.51103041 -131.00029087 90.40009689 C-130.87863609 89.47107394 -130.75698131 88.54205099 -130.63164002 87.58487582 C-129.69911647 83.76868701 -128.12739259 80.91465281 -125.06835938 78.43286133 C-123.96717773 77.76420044 -123.96717773 77.76420044 -122.84375 77.08203125 C-121.57748779 76.29747559 -121.57748779 76.29747559 -120.28564453 75.49707031 C-119.36638184 74.94116211 -118.44711914 74.38525391 -117.5 73.8125 C-115.5059959 72.57714615 -113.51389498 71.33871649 -111.5234375 70.09765625 C-110.46608398 69.43910645 -109.40873047 68.78055664 -108.31933594 68.10205078 C-103.10719177 64.80133283 -97.98873505 61.3642615 -92.86907959 57.92248535 C-83.8856824 51.88325315 -74.85918645 45.94333792 -65.64453125 40.26171875 C-61.0458489 37.42328574 -56.52086548 34.47316926 -51.99023438 31.52783203 C-44.39773338 26.59681414 -36.76094777 21.73557437 -29.12866211 16.86645508 C-22.46815373 12.60756001 -15.84798277 8.29809566 -9.32568359 3.82983398 C-3.68607359 0 -3.68607359 0 0 0 Z " fill="#3B393D" transform="translate(1973,548)"/>
<path d="M0 0 C1.85564181 -0.00067544 3.71128354 -0.00164747 5.56692505 -0.00289917 C9.41750956 -0.00435968 13.2680706 -0.00227177 17.11865234 0.00244141 C22.05939491 0.00819434 27.00008381 0.0048146 31.94082451 -0.00113106 C35.75481578 -0.0047336 39.56879415 -0.00360048 43.3827858 -0.00100327 C45.20650362 -0.00033604 47.0302226 -0.00115529 48.85393906 -0.00348282 C51.38556824 -0.00601031 53.91710799 -0.00216996 56.44873047 0.00341797 C57.57843262 0.00038162 57.57843262 0.00038162 58.73095703 -0.00271606 C63.90425965 0.01853608 63.90425965 0.01853608 66.1328125 1.1328125 C65.50170585 12.91917869 64.00816061 24.53895635 62.4453125 36.23046875 C62.17977791 38.23868193 61.91456559 40.24693775 61.6496582 42.25523376 C61.09744483 46.43506641 60.54250569 50.61452429 59.98535156 54.79370117 C59.27183705 60.14618541 58.56349346 65.49933774 57.85694885 70.85274601 C57.31103695 74.98702108 56.76330795 79.12105365 56.2149353 83.25500298 C55.95303958 85.22970323 55.69150065 87.20445084 55.43032837 89.1792469 C55.06594334 91.93100853 54.69932708 94.68246347 54.33203125 97.43383789 C54.17146744 98.65025719 54.17146744 98.65025719 54.00765991 99.89125061 C53.50086156 103.67005727 52.94297433 107.40399149 52.1328125 111.1328125 C50.80095917 111.13828094 50.80095917 111.13828094 49.44219971 111.14385986 C41.02808426 111.1819048 32.61434995 111.23894287 24.2005043 111.31671524 C19.87600554 111.35603447 15.55170567 111.38829847 11.22705078 111.40380859 C7.04464492 111.41907866 2.86278641 111.4537042 -1.31937408 111.50112152 C-2.90590883 111.51582958 -4.49252176 111.52384736 -6.07912445 111.52469635 C-19.95456228 111.53957264 -32.18873741 113.50925262 -42.8671875 123.1328125 C-54.31038287 135.60831149 -55.11166253 152.99650659 -57.203125 168.9921875 C-57.53610519 171.47550896 -57.86991519 173.95871926 -58.20443726 176.4418335 C-59.09362288 183.06257354 -59.96798572 189.6852136 -60.83830535 196.30845714 C-61.69972476 202.86370014 -62.56528321 209.418389 -63.43225098 215.97290039 C-67.31792745 245.35855375 -71.17349897 274.74812049 -75.02023482 304.1388936 C-76.65661842 316.64101841 -78.29545029 329.14282195 -79.93439031 341.64461184 C-82.23072245 359.16167487 -84.52658226 376.67880013 -86.81969261 394.19628525 C-87.36653975 398.37361052 -87.91410096 402.55084123 -88.46221352 406.72800064 C-89.70387534 416.19709385 -90.93855923 425.6669669 -92.15121472 435.13982415 C-92.7061846 439.47379875 -93.26403721 443.80740042 -93.82198405 448.14099264 C-94.08574938 450.19698746 -94.3479634 452.25318194 -94.60856366 454.30958033 C-94.96555276 457.12637627 -95.32760148 459.94247847 -95.69076538 462.75848389 C-95.79571375 463.5980524 -95.90066211 464.43762092 -96.00879073 465.3026309 C-96.75336299 471.01898799 -96.75336299 471.01898799 -97.8671875 472.1328125 C-99.29665221 472.22835649 -100.73081415 472.25469688 -102.16346741 472.25306702 C-103.09039902 472.25444168 -104.01733063 472.25581635 -104.97235107 472.25723267 C-105.99733704 472.25363739 -107.022323 472.25004211 -108.07836914 472.24633789 C-109.68792732 472.24655693 -109.68792732 472.24655693 -111.33000183 472.2467804 C-114.89580266 472.24608074 -118.46155199 472.23828588 -122.02734375 472.23046875 C-124.49214143 472.22860476 -126.95693949 472.22718077 -129.42173767 472.22618103 C-135.92372655 472.22235437 -142.42569325 472.21252282 -148.92767334 472.20147705 C-155.55659567 472.19072998 -162.18552443 472.18668409 -168.81445312 472.18164062 C-181.83204074 472.17090069 -194.84961294 472.15401347 -207.8671875 472.1328125 C-206.40378825 456.01452678 -204.36384025 439.98246035 -202.24977374 423.93881178 C-201.75886729 420.20808413 -201.2715358 416.47688911 -200.78370667 412.74575806 C-199.83321861 405.48047967 -198.87943913 398.21563723 -197.92436439 390.95096052 C-197.14743922 385.04102731 -196.37164094 379.1309472 -195.59661865 373.22076416 C-195.48574205 372.37525887 -195.37486544 371.52975358 -195.26062894 370.65862691 C-195.03546247 368.94157 -194.81029751 367.22451289 -194.58513403 365.50745559 C-192.61655261 350.49648141 -190.64472203 335.48593582 -188.67138672 320.47558594 C-186.71922591 305.62627248 -184.77162987 290.7763673 -182.82765853 275.92597961 C-181.00010487 261.96509266 -179.16945587 248.00461504 -177.33535862 234.04458618 C-176.32149198 226.32721854 -175.30883332 218.60969752 -174.29959106 210.89172363 C-167.11506536 155.96379389 -167.11506536 155.96379389 -163.50390625 132.28125 C-163.38675388 131.50429653 -163.26960152 130.72734306 -163.14889908 129.92684555 C-159.56658691 106.3132771 -152.25339701 84.48068916 -137.8671875 65.1328125 C-137.47337891 64.59382324 -137.07957031 64.05483398 -136.67382812 63.49951172 C-121.56846026 42.94333088 -102.63223083 26.67488816 -79.8671875 15.1328125 C-78.75730469 14.56949219 -77.64742187 14.00617187 -76.50390625 13.42578125 C-51.73525029 1.47997038 -27.01457597 -0.03510469 0 0 Z " fill="#3B393D" transform="translate(1718.8671875,707.8671875)"/>
<path d="M0 0 C9.57 0 19.14 0 29 0 C28.20203761 4.83425759 27.40297042 9.6683092 26.60131836 14.50195312 C26.33020152 16.1385711 26.05967189 17.77528649 25.78979492 19.41210938 C25.396654 21.7958465 25.00123797 24.17919799 24.60546875 26.5625 C24.43183052 27.61981323 24.43183052 27.61981323 24.25468445 28.69848633 C22.95609114 36.49168231 21.45713896 44.22859223 20 52 C38.48 52 56.96 52 76 52 C76.495 47.05 76.495 47.05 77 42 C77.498781 38.85481728 78.02126857 35.72872756 78.59375 32.59765625 C78.74533569 31.75327499 78.89692139 30.90889374 79.05310059 30.03892517 C79.37063456 28.27488501 79.69002738 26.5111785 80.01123047 24.74780273 C80.50307851 22.04558663 80.98829662 19.34223925 81.47265625 16.63867188 C81.78346797 14.91659692 82.09465238 13.19458918 82.40625 11.47265625 C82.55106812 10.66643326 82.69588623 9.86021027 82.84509277 9.02955627 C83.41066563 5.9367826 84.00431083 2.9870675 85 0 C94.24 0 103.48 0 113 0 C112.31221565 8.25341221 111.42846651 16.1452097 109.97460938 24.25439453 C109.77124466 25.41360916 109.56787994 26.57282379 109.35835266 27.76716614 C108.6921146 31.55667072 108.0181309 35.34474928 107.34375 39.1328125 C106.87636616 41.77881297 106.40934873 44.42487579 105.94274902 47.0710144 C104.96800198 52.59390646 103.9890319 58.11603653 103.00732422 63.63769531 C101.87233033 70.02173801 100.74342123 76.40683352 99.61784315 82.79254258 C98.53214939 88.95151041 97.44289387 95.10984258 96.35176086 101.26784897 C95.88845293 103.88409136 95.4259577 106.5004778 94.96427917 109.11700821 C94.32110779 112.75841881 93.6738526 116.39907913 93.02539062 120.03955078 C92.83419144 121.12624557 92.64299225 122.21294037 92.44599915 123.33256531 C92.18105904 124.81260292 92.18105904 124.81260292 91.9107666 126.32254028 C91.68180569 127.61271655 91.68180569 127.61271655 91.4482193 128.92895699 C91 131 91 131 90 133 C80.76 133 71.52 133 62 133 C62.64894092 125.86164988 63.3915466 118.98147933 64.62890625 111.95703125 C64.83380676 110.76466858 64.83380676 110.76466858 65.04284668 109.54821777 C65.54466605 106.63549268 66.05399636 103.72406559 66.5625 100.8125 C67.696875 94.274375 68.83125 87.73625 70 81 C51.85 81 33.7 81 15 81 C12.07878574 97.73837966 12.07878574 97.73837966 9.16625977 114.47827148 C8.79995846 116.56760109 8.43336122 118.65687885 8.06640625 120.74609375 C7.87719604 121.84215942 7.68798584 122.9382251 7.49304199 124.06750488 C7.31043823 125.10282349 7.12783447 126.13814209 6.93969727 127.20483398 C6.78203384 128.10862289 6.62437042 129.0124118 6.46192932 129.94358826 C6 132 6 132 5 133 C2.92737924 133.08767112 0.85179706 133.10695873 -1.22265625 133.09765625 C-2.48271484 133.09443359 -3.74277344 133.09121094 -5.04101562 133.08789062 C-6.38151109 133.07953403 -7.72200588 133.07106907 -9.0625 133.0625 C-10.40689942 133.0574866 -11.7513006 133.05292342 -13.09570312 133.04882812 C-16.39717941 133.03699488 -19.69856803 133.02050971 -23 133 C-22.38056023 125.58670181 -21.28211335 118.3249499 -19.97460938 111.00439453 C-19.77124466 109.84868454 -19.56787994 108.69297455 -19.35835266 107.50224304 C-18.69040966 103.71178883 -18.0171769 99.92229593 -17.34375 96.1328125 C-16.87646639 93.48872755 -16.40944763 90.84459708 -15.94274902 88.20040894 C-14.96677273 82.67417709 -13.98799795 77.14844696 -13.00732422 71.62304688 C-11.87442211 65.23985676 -10.74508998 58.85604351 -9.61784315 52.47185242 C-8.53059555 46.31423956 -7.44170298 40.15691902 -6.35176086 33.99978256 C-5.88896603 31.38510243 -5.42647098 28.77036922 -4.96427917 26.15558243 C-4.31945342 22.50987184 -3.67271964 18.86450511 -3.02539062 15.21923828 C-2.83419144 14.13659195 -2.64299225 13.05394562 -2.44599915 11.93849182 C-2.26937241 10.94616043 -2.09274567 9.95382904 -1.9107666 8.931427 C-1.75812599 8.07055544 -1.60548538 7.20968388 -1.4482193 6.3227253 C-1.03854364 4.1997377 -0.5243994 2.09759761 0 0 Z " fill="#3B393D" transform="translate(1261,474)"/>
<path d="M0 0 C10.56 0 21.12 0 32 0 C35.13013996 17.19322331 38.25955577 34.38657789 41.38763428 51.58017635 C42.8399767 59.5628966 44.29264993 67.54555638 45.74609375 75.52807617 C47.01245535 82.48311856 48.27820461 89.43827206 49.54320908 96.39356142 C50.21345248 100.07859295 50.88400889 103.76356691 51.55529785 107.44840813 C52.30344325 111.55519481 53.05022182 115.66222886 53.796875 119.76928711 C54.02129272 120.99998932 54.24571045 122.23069153 54.47692871 123.49868774 C54.67886841 124.61073074 54.88080811 125.72277374 55.08886719 126.86851501 C55.35434357 128.32725241 55.35434357 128.32725241 55.62518311 129.81545925 C56 132 56 132 56 133 C45.77 133 35.54 133 25 133 C24.34 129.1225 23.68 125.245 23 121.25 C22.68675781 119.4251709 22.68675781 119.4251709 22.3671875 117.56347656 C22.20476562 116.59893555 22.04234375 115.63439453 21.875 114.640625 C21.70742188 113.65610352 21.53984375 112.67158203 21.3671875 111.65722656 C21 109 21 109 21 105 C6.15 105 -8.7 105 -24 105 C-24.66 106.98 -25.32 108.96 -26 111 C-26.83172762 112.81614113 -27.69986035 114.61600302 -28.6015625 116.3984375 C-29.04322754 117.27677246 -29.48489258 118.15510742 -29.93994141 119.06005859 C-30.77404541 120.70095459 -30.77404541 120.70095459 -31.625 122.375 C-34.285625 127.634375 -34.285625 127.634375 -37 133 C-47.89 133 -58.78 133 -70 133 C-69.12265957 128.61329784 -68.23019245 126.19230593 -66.1484375 122.37109375 C-65.55240723 121.26862305 -64.95637695 120.16615234 -64.34228516 119.03027344 C-63.68656048 117.83266201 -63.03079767 116.63507146 -62.375 115.4375 C-61.69379723 114.18169536 -61.01330836 112.92550323 -60.33349609 111.66894531 C-58.92240176 109.06210486 -57.50826286 106.45695274 -56.09179688 103.85302734 C-52.91020184 97.99929521 -49.76848315 92.12427084 -46.625 86.25 C-45.70738892 84.53792358 -45.70738892 84.53792358 -44.77124023 82.79125977 C-40.33513118 74.51040793 -35.92423333 66.2163656 -31.52139282 57.91778564 C-9.04687489 15.56062482 -9.04687489 15.56062482 0 0 Z M10 39 C7.29153509 44.24973595 4.5856954 49.50081303 1.88232422 54.75317383 C0.96150339 56.54130966 0.03995491 58.32907097 -0.88232422 60.11645508 C-2.20469709 62.67952902 -3.52448255 65.24392031 -4.84375 67.80859375 C-5.25935181 68.6127623 -5.67495361 69.41693085 -6.10314941 70.24546814 C-8.09402689 73.47560349 -8.09402689 73.47560349 -9 77 C-0.75 77 7.5 77 16 77 C15.24461211 67.50922854 15.24461211 67.50922854 14.02734375 58.140625 C13.85009766 57.00625 13.67285156 55.871875 13.49023438 54.703125 C13.30783203 53.56359375 13.12542969 52.4240625 12.9375 51.25 C12.75123047 50.0640625 12.56496094 48.878125 12.37304688 47.65625 C11.9191931 44.77020551 11.4614584 41.88483655 11 39 C10.67 39 10.34 39 10 39 Z " fill="#3B393D" transform="translate(964,474)"/>
<path d="M0 0 C10.56 0 21.12 0 32 0 C33.92020816 8.32090203 35.74327406 16.56498984 37.26831055 24.953125 C37.47357361 26.0686525 37.67883667 27.18417999 37.89031982 28.33351135 C38.55887291 31.97178266 39.22301852 35.61084054 39.88671875 39.25 C40.35312027 41.79779507 40.81966 44.34556485 41.28633118 46.89331055 C42.25910033 52.2082867 43.22960269 57.52366984 44.19848633 62.83935547 C45.31701657 68.97573482 46.44104472 75.11108945 47.56770295 81.24598122 C48.65606108 87.17356731 49.73949986 93.10204087 50.82099342 99.03088379 C51.28012638 101.54456698 51.74064761 104.057997 52.20258141 106.57116699 C52.84589979 110.07403394 53.48360752 113.57787735 54.11987305 117.08203125 C54.31152542 118.11896622 54.5031778 119.15590118 54.70063782 120.22425842 C54.87299957 121.17997238 55.04536133 122.13568634 55.22294617 123.12036133 C55.37391093 123.94691727 55.5248757 124.77347321 55.68041515 125.62507629 C56.01494407 128.11105356 56.05543175 130.49466128 56 133 C51.74585377 133.02465622 47.49174502 133.04283899 43.23754883 133.05493164 C41.78929927 133.05997101 40.34105483 133.06680253 38.89282227 133.07543945 C36.81525412 133.08752247 34.73775303 133.09323211 32.66015625 133.09765625 C31.40855713 133.10289307 30.15695801 133.10812988 28.86743164 133.11352539 C26 133 26 133 25 132 C24.32714477 128.81946023 23.91143588 125.59050753 23.4375 122.375 C23.29892578 121.48425781 23.16035156 120.59351563 23.01757812 119.67578125 C22.88673828 118.80050781 22.75589844 117.92523437 22.62109375 117.0234375 C22.5017749 116.22856934 22.38245605 115.43370117 22.25952148 114.61474609 C21.94286395 111.42433954 22 108.20608265 22 105 C7.15 105.33 -7.7 105.66 -23 106 C-27.23546219 114.5105101 -27.23546219 114.5105101 -31.46655273 123.02319336 C-31.99192627 124.07643799 -32.5172998 125.12968262 -33.05859375 126.21484375 C-33.59798584 127.29886475 -34.13737793 128.38288574 -34.69311523 129.49975586 C-36 132 -36 132 -37 133 C-39.44830426 133.08843793 -41.86820599 133.11528752 -44.31640625 133.09765625 C-45.04746078 133.0962413 -45.77851532 133.09482635 -46.53172302 133.09336853 C-48.87535632 133.08775408 -51.21889539 133.07519922 -53.5625 133.0625 C-55.14778508 133.05748686 -56.73307166 133.05292363 -58.31835938 133.04882812 C-62.2122761 133.03777997 -66.10612205 133.02050572 -70 133 C-68.541921 129.17705236 -66.82224407 125.57604152 -64.9453125 121.94140625 C-64.49956627 121.07705963 -64.49956627 121.07705963 -64.04481506 120.19525146 C-63.07432777 118.31621185 -62.09996521 116.43921967 -61.125 114.5625 C-60.78820221 113.91252045 -60.45140442 113.26254089 -60.10440063 112.59286499 C-55.43150445 103.57829667 -50.66232817 94.62445827 -45.76538086 85.72924805 C-41.14912306 77.32521366 -36.66462762 68.85365648 -32.1875 60.375 C-24.69696246 46.19214376 -17.14711434 32.04261561 -9.56103516 17.91064453 C-6.36240937 11.94661316 -3.18139704 5.97323526 0 0 Z M10 40 C7.43135228 44.9452541 4.86799852 49.89320108 2.30957031 54.84375 C1.43798448 56.52842596 0.56494185 58.21234905 -0.30957031 59.89550781 C-1.56436321 62.31119755 -2.8139384 64.72952249 -4.0625 67.1484375 C-4.45622803 67.9036972 -4.84995605 68.65895691 -5.25561523 69.43710327 C-7.28204956 73.03112916 -7.28204956 73.03112916 -8 77 C0.25 77 8.5 77 17 77 C16.33161752 72.21162626 15.65864993 67.42438185 14.97363281 62.63842773 C14.74203048 61.01023738 14.51316907 59.38165469 14.28710938 57.75268555 C13.96163763 55.41085927 13.62632451 53.07062238 13.2890625 50.73046875 C13.19001617 50.00224411 13.09096985 49.27401947 12.98892212 48.52372742 C12.47519779 45.02628698 11.99490501 42.99235751 10 40 Z " fill="#3B393D" transform="translate(637,474)"/>
<path d="M0 0 C1.31238144 0.00222061 2.62476288 0.00444122 3.97691345 0.00672913 C4.6988237 0.0065831 5.42073395 0.00643707 6.16452026 0.00628662 C8.56156879 0.00698583 10.95854054 0.01477857 13.35557556 0.02259827 C15.0132442 0.02446242 16.67091338 0.02588633 18.32858276 0.02688599 C22.69996145 0.03071139 27.07130712 0.04054186 31.44267273 0.05158997 C35.89996392 0.0618036 40.35726043 0.0663835 44.81455994 0.07142639 C53.56652824 0.08216412 62.31846968 0.0992408 71.07041931 0.12025452 C70.42855621 4.05841247 69.78125053 7.99565666 69.13291931 11.93275452 C68.95051697 13.0523053 68.76811462 14.17185608 68.58018494 15.32533264 C68.40293884 16.39847717 68.22569275 17.4716217 68.04307556 18.57728577 C67.7995636 20.06192322 67.7995636 20.06192322 67.5511322 21.57655334 C67.07041931 24.12025452 67.07041931 24.12025452 66.07041931 27.12025452 C51.22041931 27.45025452 36.37041931 27.78025452 21.07041931 28.12025452 C19.75041931 35.38025452 18.43041931 42.64025452 17.07041931 50.12025452 C16.57541931 51.11025452 16.57541931 51.11025452 16.07041931 52.12025452 C29.93041931 52.12025452 43.79041931 52.12025452 58.07041931 52.12025452 C57.11135681 57.96744202 57.11135681 57.96744202 56.13291931 63.93275452 C55.93319519 65.15841125 55.73347107 66.38406799 55.5276947 67.64686584 C55.36777039 68.61390442 55.20784607 69.58094299 55.04307556 70.57728577 C54.7995636 72.06192322 54.7995636 72.06192322 54.5511322 73.57655334 C54.07041931 76.12025452 54.07041931 76.12025452 53.07041931 79.12025452 C39.21041931 79.12025452 25.35041931 79.12025452 11.07041931 79.12025452 C10.74041931 82.75025452 10.41041931 86.38025452 10.07041931 90.12025452 C9.08041931 95.07025452 8.09041931 100.02025452 7.07041931 105.12025452 C21.92041931 105.12025452 36.77041931 105.12025452 52.07041931 105.12025452 C51.16511165 114.17333111 49.65155814 123.16046781 48.07041931 132.12025452 C23.65041931 132.12025452 -0.76958069 132.12025452 -25.92958069 132.12025452 C-24.80454923 118.61987696 -24.80454923 118.61987696 -24.01881409 114.16622925 C-23.84218735 113.1498941 -23.66556061 112.13355896 -23.48358154 111.08642578 C-23.29238235 110.01840225 -23.10118317 108.95037872 -22.90419006 107.84999084 C-22.70082535 106.68916992 -22.49746063 105.528349 -22.28793335 104.33235168 C-21.62173746 100.53803396 -20.94776904 96.74514633 -20.27333069 92.95228577 C-19.80545201 90.30397754 -19.33896209 87.65542504 -18.87232971 85.00689697 C-17.89764365 79.47979834 -16.91862132 73.95348153 -15.93690491 68.42762756 C-14.80137493 62.03570448 -13.67261533 55.64261353 -12.54742384 49.24886304 C-11.4624474 43.08442521 -10.37297171 36.92079108 -9.28134155 30.75752831 C-8.81773049 28.13772174 -8.3552362 25.5177173 -7.89385986 22.89751625 C-7.25147622 19.25336309 -6.60396331 15.61015957 -5.95497131 11.96717834 C-5.76377213 10.87688828 -5.57257294 9.78659821 -5.37557983 8.66326904 C-5.19895309 7.67795197 -5.02232635 6.69263489 -4.84034729 5.67745972 C-4.68770668 4.81642041 -4.53506607 3.95538111 -4.37779999 3.0682497 C-3.65661225 -0.06608709 -3.34757935 0.13741268 0 0 Z " fill="#3B393D" transform="translate(1456.9295806884766,473.87974548339844)"/>
<path d="M0 0 C7.22242401 -0.07646293 14.44474246 -0.12877249 21.66748047 -0.16479492 C24.12129619 -0.17982224 26.57508533 -0.2002498 29.02880859 -0.22631836 C32.56875192 -0.2629682 36.10833814 -0.27978755 39.6484375 -0.29296875 C41.277173 -0.31619453 41.277173 -0.31619453 42.93881226 -0.33988953 C53.81399147 -0.34225825 62.49221324 2.11274405 71 9 C78.37194605 16.37194605 81.21026031 25.29292043 81.25 35.5 C81.21551143 48.73761239 77.90310431 60.2772321 68.89453125 70.35546875 C53.1982667 85.16274133 34.24886444 84.4615463 14 84 C13.89187988 84.95777344 13.78375977 85.91554688 13.67236328 86.90234375 C12.49030523 97.02756398 10.81203872 106.99465376 8.875 117 C8.59458958 118.46866177 8.31463993 119.93741159 8.03515625 121.40625 C7.36287289 124.93872115 6.6813051 128.4692113 6 132 C-3.57 132 -13.14 132 -23 132 C-18.46323393 104.30115006 -13.62262608 76.66009093 -8.7074585 49.02612305 C-7.72024425 43.47339207 -6.73523122 37.92027061 -5.75 32.3671875 C-3.83541497 21.57775467 -1.91850719 10.78873606 0 0 Z M24 27 C22.35 36.9 20.7 46.8 19 57 C33.92710027 57.83397711 33.92710027 57.83397711 46.9375 51.5625 C50.89313749 46.64792009 51.49082654 42.9490209 51.390625 36.703125 C50.77509465 32.443655 49.19284585 30.8215847 46 28 C43.17588235 27.05862745 41.47081968 26.88274618 38.55078125 26.90234375 C37.78677002 26.90484131 37.02275879 26.90733887 36.2355957 26.90991211 C35.27097412 26.91901611 34.30635254 26.92812012 33.3125 26.9375 C30.239375 26.958125 27.16625 26.97875 24 27 Z " fill="#3B393D" transform="translate(780,475)"/>
<path d="M0 0 C0.9576123 0.00016113 1.91522461 0.00032227 2.90185547 0.00048828 C12.15142442 0.1488938 19.94081523 2.07743188 28.1875 6.375 C27.64457868 17.1191271 26.6473439 27.71672223 25.1875 38.375 C21.62981668 38.375 20.91233995 37.6416229 18.125 35.5625 C10.15390247 30.11536873 1.77652449 28.24687947 -7.8125 29.375 C-20.93947847 32.03844491 -30.91078951 38.5695429 -38.8125 49.375 C-45.67595799 60.93634654 -48.12456524 73.28939652 -45.08984375 86.52734375 C-44.16394441 88.96017237 -43.1245782 91.12941042 -41.8125 93.375 C-41.26916016 94.35339844 -41.26916016 94.35339844 -40.71484375 95.3515625 C-37.00929224 101.25532253 -31.52787244 104.77910631 -24.875 106.6875 C-12.25464124 109.2360773 -0.84886577 105.43300512 10.1875 99.375 C11.51918447 98.70504575 12.85228453 98.03788904 14.1875 97.375 C12.21251099 119.96989033 12.21251099 119.96989033 10.1875 130.375 C7.79289412 131.19127446 5.39693474 132.00311645 3 132.8125 C1.98969727 133.15764648 1.98969727 133.15764648 0.95898438 133.50976562 C-13.4418204 138.35686577 -30.74406615 138.45527369 -44.8125 132.375 C-48.71234553 130.31272573 -52.26591148 127.99285831 -55.8125 125.375 C-56.76189453 124.73498047 -56.76189453 124.73498047 -57.73046875 124.08203125 C-68.02227096 116.42794494 -73.82883258 102.79404666 -76.38671875 90.6484375 C-79.14366151 69.45285919 -75.49931353 48.89369496 -62.46923828 31.59130859 C-59.4772121 27.94101535 -56.21641868 24.64058817 -52.8125 21.375 C-52.03777344 20.61574219 -51.26304688 19.85648437 -50.46484375 19.07421875 C-36.5326272 6.02658737 -18.90466401 -0.03000211 0 0 Z " fill="#3B393D" transform="translate(1149.8125,472.625)"/>
<path d="M0 0 C4.95 0 9.9 0 15 0 C16.65487786 4.12564899 18.30919807 8.25151315 19.9621582 12.37792969 C20.52336432 13.77844751 21.08488129 15.17884081 21.64672852 16.57910156 C27.39179275 30.898355 27.39179275 30.898355 30 38 C32.21624435 34.67563347 33.5718305 31.25946036 35.00390625 27.55859375 C35.28725327 26.83511246 35.57060028 26.11163116 35.86253357 25.3662262 C36.76588042 23.05794641 37.66437725 20.74781684 38.5625 18.4375 C39.46509815 16.12397693 40.36869435 13.81084864 41.2731781 11.49806213 C41.83540215 10.05955415 42.39636468 8.62055236 42.95594788 7.18101501 C44.89016157 2.21967686 44.89016157 2.21967686 46 0 C50.95 0 55.9 0 61 0 C61 18.48 61 36.96 61 56 C57.7 56 54.4 56 51 56 C50.67 42.47 50.34 28.94 50 15 C48.92878906 17.79210938 47.85757813 20.58421875 46.75390625 23.4609375 C45.71825924 26.15829602 44.6822667 28.85552158 43.64624023 31.55273438 C42.9251751 33.43052509 42.20447051 35.3084543 41.48413086 37.18652344 C40.44999941 39.88252477 39.41458177 42.57802901 38.37890625 45.2734375 C38.05596085 46.11619232 37.73301544 46.95894714 37.40028381 47.82723999 C37.10004807 48.60789825 36.79981232 49.38855652 36.49047852 50.19287109 C36.22622574 50.88126068 35.96197296 51.56965027 35.68971252 52.27890015 C35 54 35 54 34 56 C31.69 56 29.38 56 27 56 C25.52323646 52.39353495 24.04832664 48.78631737 22.57495117 45.1784668 C21.83409312 43.36534542 21.09187164 41.55278134 20.34960938 39.74023438 C19.86943359 38.56396484 19.38925781 37.38769531 18.89453125 36.17578125 C18.45987549 35.11270752 18.02521973 34.04963379 17.57739258 32.9543457 C15.331421 27.32394769 13.17606977 21.65778141 11 16 C10.67 29.2 10.34 42.4 10 56 C6.7 56 3.4 56 0 56 C0 37.52 0 19.04 0 0 Z " fill="#3B393D" transform="translate(2317,1129)"/>
<path d="M0 0 C14.52 0 29.04 0 44 0 C44 2.64 44 5.28 44 8 C38.39 8 32.78 8 27 8 C27 23.84 27 39.68 27 56 C23.7 56 20.4 56 17 56 C17 40.16 17 24.32 17 8 C11.39 8 5.78 8 0 8 C0 5.36 0 2.72 0 0 Z " fill="#3B393E" transform="translate(2262,1129)"/>
</svg>
